<svg xmlns="http://www.w3.org/2000/svg" viewBox="0 0 140.34 138.72"><defs><style>.cls-1{fill:#282828;}.cls-2{fill:#3841b2;}</style></defs><g id="Layer_2" data-name="Layer 2"><g id="Layer_1-2" data-name="Layer 1"><path class="cls-1" d="M140.34,16.89V138.72H106.57v-74a58.33,58.33,0,0,0,5.6-4c8.5-6.89,16.49-18.85,20.63-29.78,3.66-9.63,4.33-18.46-.27-22.32-8.65-7.26-11.56,5.72-23.68,16.72-.73.67-1.48,1.32-2.28,2V16.89a16.89,16.89,0,1,1,33.77,0Z"/><path class="cls-1" d="M7.54,31c4.14,10.92,12.13,22.88,20.63,29.78a58.21,58.21,0,0,0,5.59,4v74H0V16.89a16.88,16.88,0,1,1,33.76,0V27.3c-.8-.64-1.55-1.29-2.28-2-12.11-11-15-24-23.67-16.71C3.22,12.49,3.89,21.32,7.54,31Z"/><path class="cls-2" d="M125.43,33.65c-3.63,8.18-9,16.63-14.21,21.06a57.4,57.4,0,0,1-4.65,3.52,66.42,66.42,0,0,1-72.81,0,56.44,56.44,0,0,1-4.63-3.51c-5.26-4.42-10.59-12.88-14.21-21.06-3.56-8-5.49-15.73-4.15-19.18,2.13-5.53,6.94,5.4,17.32,15a56,56,0,0,0,5.67,4.62l1,.69c15.35,10.28,35.41,10,35.41,10s20.06.26,35.42-10l1-.68a55.1,55.1,0,0,0,5.68-4.62c10.37-9.63,15.19-20.57,17.33-15C130.91,17.92,129,25.66,125.43,33.65Z"/></g></g></svg>